<?xml version="1.0" encoding="UTF-8"?>
<svg width="15px" height="18px" viewBox="0 0 15 18" version="1.1" xmlns="http://www.w3.org/2000/svg" xmlns:xlink="http://www.w3.org/1999/xlink">
    <!-- Generator: Sketch 50.2 (55047) - http://www.bohemiancoding.com/sketch -->
    <title>Shape</title>
    <desc>Created with Sketch.</desc>
    <defs></defs>
    <g id="V6-12-juin-2018-variante-au-menu-..." stroke="none" stroke-width="1" fill="none" fill-rule="evenodd">
        <g id="Commandes" transform="translate(-1244.000000, -141.000000)" fill="#000000" fill-rule="nonzero">
            <g id="commandes" transform="translate(1232.000000, 133.000000)">
                <path d="M13.875,8 L21.375,8 L27,13.4 L27,24.2 C27,25.1941125 26.1605339,26 25.125,26 L13.875,26 C12.8394661,26 12,25.1941125 12,24.2 L12,9.8 C12,8.80588745 12.8394661,8 13.875,8 Z M20.4375,9.35 L20.4375,14.3 L25.59375,14.3 L20.4375,9.35 Z M24.1875,16.1 L20.4375,16.1 L20.4375,17.9 L21.375,17.9 L19.5,19.403 L17.625,17.9 L18.5625,17.9 L18.5625,16.1 L14.8125,16.1 L14.8125,17.9 L15.75,17.9 L18.5625,20.15 L15.75,22.4 L14.8125,22.4 L14.8125,24.2 L18.5625,24.2 L18.5625,22.4 L17.625,22.4 L19.5,20.897 L21.375,22.4 L20.4375,22.4 L20.4375,24.2 L24.1875,24.2 L24.1875,22.4 L23.25,22.4 L20.4375,20.15 L23.25,17.9 L24.1875,17.9 L24.1875,16.1 Z" id="Shape"></path>
            </g>
        </g>
    </g>
</svg>