<svg width="88" height="88" viewBox="0 0 88 88" fill="none" xmlns="http://www.w3.org/2000/svg">
<path d="M44 0C19.7232 0 0 19.7231 0 44C0 68.2768 19.7232 88 44 88C68.2768 88 88 68.2768 88 44C88 19.7231 68.2768 0 44 0ZM44 4C66.1151 4 84 21.8849 84 44C84 66.1151 66.1151 84 44 84C21.8849 84 4 66.1151 4 44C4 21.8849 21.8849 4 44 4ZM37.8125 10C36.8293 10.0927 35.9957 11.0125 36 12V19.6562C35.1282 19.9375 34.251 20.2825 33.4062 20.6875L27.3125 15.4688C26.5585 14.8163 25.3011 14.8596 24.5938 15.5625L16.5938 23.5625C15.8821 24.2618 15.8243 25.5196 16.4688 26.2812L21.6875 32.375C21.2819 33.2284 20.9457 34.1167 20.6562 35H13C11.9528 35.0001 11.0001 35.9528 11 37V49C11.0001 50.0472 11.9528 50.9999 13 51H20.4688C20.7684 52.167 21.1702 53.3314 21.6562 54.5L16.5938 59.5625C15.8442 60.3041 15.8442 61.6647 16.5938 62.4062L24.5938 70.4062C25.3331 71.1372 26.6669 71.1372 27.4062 70.4062L32.3125 65.5C33.435 66.1843 34.661 66.7836 36 67.3125V74C36.0001 75.0472 36.9528 75.9999 38 76H50C51.0472 75.9999 51.9999 75.0472 52 74V67.3125C53.339 66.7836 54.565 66.1843 55.6875 65.5L60.5938 70.4062C61.3331 71.1372 62.6669 71.1372 63.4062 70.4062L71.4062 62.4062C72.1558 61.6647 72.1558 60.3041 71.4062 59.5625L66.3438 54.5C66.8298 53.3314 67.2316 52.167 67.5312 51H75C76.0472 50.9999 76.9999 50.0472 77 49V37C76.9999 35.9528 76.0472 35.0001 75 35H67.3438C67.0543 34.1167 66.7181 33.2284 66.3125 32.375L71.5312 26.2812C72.1757 25.5196 72.1179 24.2618 71.4062 23.5625L63.4062 15.5625C62.6989 14.8596 61.4415 14.8163 60.6875 15.4688L54.5938 20.6875C53.749 20.2824 52.8718 19.9375 52 19.6562V12C51.9999 10.9528 51.0472 10.0001 50 10C45.9443 10 41.8539 10 37.8125 10ZM40 14H48V21C48.0095 21.8606 48.639 22.6776 49.4688 22.9062C51.3347 23.4198 52.4805 23.8264 54 24.7188C54.7148 25.133 55.6881 25.0409 56.3125 24.5L61.9062 19.7188L67.2812 25.0938L62.4688 30.6875C61.9413 31.3067 61.8498 32.2606 62.25 32.9688C63.1134 34.4751 63.5475 35.6993 64.0625 37.5312C64.2939 38.371 65.1289 39.004 66 39H73V47H66C65.1128 47.0031 64.2705 47.6688 64.0625 48.5312C63.6001 50.5238 63.0432 52.5462 62.25 54.0312C61.839 54.7843 61.9861 55.8007 62.5938 56.4062L67.1875 61L62 66.1562L57.4062 61.5625C56.7732 60.9317 55.6962 60.809 54.9375 61.2812C53.0857 62.4459 51.2421 63.5744 49.4688 64.0625C48.629 64.2939 47.996 65.1289 48 66V72H40V66C40.004 65.1289 39.371 64.2939 38.5312 64.0625C36.7579 63.5744 34.9143 62.4459 33.0625 61.2812C32.3038 60.809 31.2268 60.9317 30.5938 61.5625L26 66.1562L20.8125 61L25.4062 56.4062C26.0139 55.8007 26.161 54.7843 25.75 54.0312C24.9568 52.5462 24.3999 50.5238 23.9375 48.5312C23.7295 47.6688 22.8872 47.0031 22 47H15V39H22C22.8711 39.004 23.7061 38.371 23.9375 37.5312C24.4525 35.6993 24.8866 34.4751 25.75 32.9688C26.1502 32.2606 26.0587 31.3067 25.5312 30.6875L20.7188 25.0938L26.0938 19.7188L31.6875 24.5C32.3119 25.0409 33.2852 25.133 34 24.7188C35.5195 23.8264 36.6653 23.4198 38.5312 22.9062C39.361 22.6776 39.9905 21.8606 40 21V14ZM44 31C36.844 31 31 36.844 31 44C31 51.156 36.844 57 44 57C51.156 57 57 51.156 57 44C57 36.844 51.156 31 44 31ZM44 35C48.9943 35 53 39.0057 53 44C53 48.9942 48.9943 53 44 53C39.0057 53 35 48.9942 35 44C35 39.0057 39.0057 35 44 35Z" fill="white"/>
</svg>
