<?xml version="1.0" encoding="UTF-8" standalone="no"?>
<svg
   xmlns:dc="http://purl.org/dc/elements/1.1/"
   xmlns:cc="http://creativecommons.org/ns#"
   xmlns:rdf="http://www.w3.org/1999/02/22-rdf-syntax-ns#"
   xmlns:svg="http://www.w3.org/2000/svg"
   xmlns="http://www.w3.org/2000/svg"
   xmlns:sodipodi="http://sodipodi.sourceforge.net/DTD/sodipodi-0.dtd"
   xmlns:inkscape="http://www.inkscape.org/namespaces/inkscape"
   width="21px"
   height="23px"
   viewBox="0 0 21 23"
   version="1.1"
   id="svg13"
   sodipodi:docname="techAlarms.svg"
   inkscape:version="0.92.0 r15299">
  <metadata
     id="metadata17">
    <rdf:RDF>
      <cc:Work
         rdf:about="">
        <dc:format>image/svg+xml</dc:format>
        <dc:type
           rdf:resource="http://purl.org/dc/dcmitype/StillImage" />
      </cc:Work>
    </rdf:RDF>
  </metadata>
  <sodipodi:namedview
     pagecolor="#ffffff"
     bordercolor="#666666"
     borderopacity="1"
     objecttolerance="10"
     gridtolerance="10"
     guidetolerance="10"
     inkscape:pageopacity="0"
     inkscape:pageshadow="2"
     inkscape:window-width="1858"
     inkscape:window-height="1057"
     id="namedview15"
     showgrid="false"
     inkscape:zoom="10.26087"
     inkscape:cx="10.5"
     inkscape:cy="11.5"
     inkscape:window-x="54"
     inkscape:window-y="-8"
     inkscape:window-maximized="1"
     inkscape:current-layer="Page-1" />
  <!-- Generator: Sketch 46.2 (44496) - http://www.bohemiancoding.com/sketch -->
  <title
     id="title2">Shape Copy</title>
  <desc
     id="desc4">Created with Sketch.</desc>
  <defs
     id="defs6" />
  <g
     id="Page-1"
     stroke="none"
     stroke-width="1"
     fill="none"
     fill-rule="evenodd">
    <g
       id="Vue-d'ensemble-boucle"
       transform="translate(-37.000000, -217.000000)"
       fill="#4B6374"
       style="fill:#ffffff;fill-opacity:1">
      <g
         id="Facettes-et-fond"
         transform="translate(0.000000, 3.000000)"
         style="fill:#ffffff;fill-opacity:1">
        <g
           id="icônes-facettes"
           transform="translate(34.000000, 79.000000)"
           style="fill:#ffffff;fill-opacity:1">
          <path
             d="M15.8333333,155.7 C15.8333333,156.970255 14.7886644,158 13.5,158 C12.2113356,158 11.1666667,156.970255 11.1666667,155.7 L15.8333333,155.7 L15.8333333,155.7 Z M13.5,135 C14.1443322,135 14.6666667,135.514873 14.6666667,136.15 L14.6666667,137.392 C17.98,137.944 20.5,140.7845 20.5,144.2 L20.5,151.1 L24,154.55 L3,154.55 L6.5,151.1 L6.5,144.2 C6.5,140.7845 9.02,137.944 12.3333333,137.392 L12.3333333,136.15 C12.3333333,135.514873 12.8556678,135 13.5,135 Z M17.8695652,148.826087 L13.9130435,144.869565 C14.3043478,143.869565 14.0869565,142.695652 13.2608696,141.869565 C12.3913043,141 11.0869565,140.826087 10.0434783,141.304348 L11.9130435,143.173913 L10.6086957,144.478261 L8.69565217,142.608696 C8.17391304,143.652174 8.39130435,144.956522 9.26086957,145.826087 C10.0869565,146.652174 11.2608696,146.869565 12.2608696,146.478261 L16.2173913,150.434783 C16.3913043,150.608696 16.6521739,150.608696 16.826087,150.434783 L17.826087,149.434783 C18.0434783,149.26087 18.0434783,148.956522 17.8695652,148.826087 Z"
             id="Shape-Copy"
             style="fill:#ffffff;fill-opacity:1" />
        </g>
      </g>
    </g>
  </g>
</svg>
